<?xml version="1.0" encoding="utf-8"?>
<!-- Generator: Adobe Illustrator 24.3.0, SVG Export Plug-In . SVG Version: 6.00 Build 0)  -->
<svg version="1.1" id="Capa_1" xmlns="http://www.w3.org/2000/svg" xmlns:xlink="http://www.w3.org/1999/xlink" x="0px" y="0px"
	 viewBox="0 0 205 205" style="enable-background:new 0 0 205 205;" xml:space="preserve">
<style type="text/css">
	.st0{fill:none;stroke:#000000;stroke-width:7;stroke-miterlimit:10;}
</style>
<g id="Capa_2_1_">
	<g id="Layer_1">
		<path class="st0" d="M80.8,60.1L58,47.4v56L13,65.8c10.2-24.7,30-44,54.8-53.6l5.7,21.2L80.8,60.1z"/>
		<path class="st0" d="M180.9,159.1c-31.2,43.3-91.7,53.1-135,21.9c-8.4-6.1-15.8-13.4-21.9-21.9c18.5-10.5,38.9-17.3,60.1-19.7
			c4.2-0.5,8.3-0.8,12.6-1l2.9-0.1h0.5h1.7h1.7h1.7h0.5c0.9,0,1.6,0,2.5,0.1c4.3,0.2,8.4,0.5,12.6,1
			C141.9,141.8,162.4,148.4,180.9,159.1z"/>
		<path class="st0" d="M58,103.4v41.2c-11.8,3.5-23.2,8.3-33.9,14.4C4.5,132,0.4,96.6,13,65.8L58,103.4z"/>
		<path class="st0" d="M199.2,102.5c0,20.3-6.4,40.1-18.3,56.6c-10.7-6.1-22.1-11-33.9-14.4v-41.2l45-37.7
			C196.8,77.4,199.2,89.8,199.2,102.5z"/>
		<path class="st0" d="M120.9,21.8V62L108.3,69v69.3c-0.8,0-1.6-0.1-2.5-0.1h-0.5h-1.7h-1.7h-1.7h-0.5l-2.9,0.1V69L84.1,62V21.8
			H120.9z"/>
		<path class="st0" d="M96.7,69v69.3c-4.3,0.2-8.4,0.5-12.6,1V62L96.7,69z"/>
		<path class="st0" d="M84.1,62v77.4c-8.8,1-17.6,2.8-26.1,5.3V47.4l22.8,12.8L84.1,62z"/>
		<path class="st0" d="M137.1,12.2l-5.7,21.2l-7.2,26.8l-3.4,1.8V21.8H84.1V62l-3.3-1.8l-7.3-26.8l-5.7-21.2
			C90.1,3.7,114.9,3.7,137.1,12.2z"/>
		<path class="st0" d="M147,103.4V47.3l-22.7,12.9l7.2-26.8l5.7-21.2c24.9,9.6,44.7,28.9,54.8,53.6L147,103.4z"/>
		<path class="st0" d="M120.9,62v77.4c-4.2-0.5-8.3-0.8-12.6-1V69L120.9,62z"/>
		<path class="st0" d="M147,47.3v97.3c-8.5-2.5-17.3-4.3-26.1-5.3V61.9l3.4-1.8L147,47.3z"/>
	</g>
</g>
</svg>
